<mxfile host="app.diagrams.net" modified="2021-10-06T08:18:44.866Z" agent="5.0 (Windows)" etag="s45u0sQHUDgsVvEmgZED" version="15.4.3" type="github">
  <diagram id="ilG7yMFIVRoA2gajqcsW" name="Page-1">
    <mxGraphModel dx="1021" dy="518" grid="1" gridSize="10" guides="1" tooltips="1" connect="1" arrows="1" fold="1" page="1" pageScale="1" pageWidth="827" pageHeight="1169" math="0" shadow="0">
      <root>
        <mxCell id="0" />
        <mxCell id="1" parent="0" />
        <mxCell id="gxWXDuv_5PvGbGYGjA6f-30" style="edgeStyle=orthogonalEdgeStyle;rounded=0;orthogonalLoop=1;jettySize=auto;html=1;" edge="1" parent="1" source="gxWXDuv_5PvGbGYGjA6f-8">
          <mxGeometry relative="1" as="geometry">
            <mxPoint x="270" y="80" as="targetPoint" />
            <Array as="points">
              <mxPoint x="270" y="80" />
            </Array>
          </mxGeometry>
        </mxCell>
        <mxCell id="gxWXDuv_5PvGbGYGjA6f-8" value="&lt;div&gt;Cliente&lt;/div&gt;" style="whiteSpace=wrap;html=1;align=center;" vertex="1" parent="1">
          <mxGeometry x="50" y="50" width="100" height="40" as="geometry" />
        </mxCell>
        <mxCell id="gxWXDuv_5PvGbGYGjA6f-26" value="" style="edgeStyle=orthogonalEdgeStyle;rounded=0;orthogonalLoop=1;jettySize=auto;html=1;" edge="1" parent="1" source="gxWXDuv_5PvGbGYGjA6f-11" target="gxWXDuv_5PvGbGYGjA6f-15">
          <mxGeometry relative="1" as="geometry">
            <Array as="points">
              <mxPoint x="400" y="80" />
              <mxPoint x="400" y="80" />
            </Array>
          </mxGeometry>
        </mxCell>
        <mxCell id="gxWXDuv_5PvGbGYGjA6f-29" style="edgeStyle=orthogonalEdgeStyle;rounded=0;orthogonalLoop=1;jettySize=auto;html=1;" edge="1" parent="1" source="gxWXDuv_5PvGbGYGjA6f-11" target="gxWXDuv_5PvGbGYGjA6f-8">
          <mxGeometry relative="1" as="geometry">
            <Array as="points">
              <mxPoint x="190" y="60" />
              <mxPoint x="190" y="60" />
            </Array>
          </mxGeometry>
        </mxCell>
        <mxCell id="gxWXDuv_5PvGbGYGjA6f-11" value="&lt;div&gt;0&lt;/div&gt;&lt;div&gt;Sistema de Gestion de Almacen&lt;br&gt;&lt;/div&gt;" style="ellipse;whiteSpace=wrap;html=1;aspect=fixed;" vertex="1" parent="1">
          <mxGeometry x="270" y="30" width="80" height="80" as="geometry" />
        </mxCell>
        <mxCell id="gxWXDuv_5PvGbGYGjA6f-27" value="" style="edgeStyle=orthogonalEdgeStyle;rounded=0;orthogonalLoop=1;jettySize=auto;html=1;" edge="1" parent="1" source="gxWXDuv_5PvGbGYGjA6f-15" target="gxWXDuv_5PvGbGYGjA6f-11">
          <mxGeometry relative="1" as="geometry">
            <Array as="points">
              <mxPoint x="400" y="60" />
              <mxPoint x="400" y="60" />
            </Array>
          </mxGeometry>
        </mxCell>
        <mxCell id="gxWXDuv_5PvGbGYGjA6f-15" value="&lt;div&gt;Proveedor&lt;/div&gt;" style="rounded=0;whiteSpace=wrap;html=1;" vertex="1" parent="1">
          <mxGeometry x="460" y="50" width="100" height="40" as="geometry" />
        </mxCell>
        <mxCell id="gxWXDuv_5PvGbGYGjA6f-37" style="edgeStyle=orthogonalEdgeStyle;rounded=0;orthogonalLoop=1;jettySize=auto;html=1;entryX=0;entryY=0.625;entryDx=0;entryDy=0;entryPerimeter=0;" edge="1" parent="1" target="gxWXDuv_5PvGbGYGjA6f-18">
          <mxGeometry relative="1" as="geometry">
            <mxPoint x="100" y="230" as="targetPoint" />
            <mxPoint x="65" y="170" as="sourcePoint" />
            <Array as="points">
              <mxPoint x="65" y="230" />
            </Array>
          </mxGeometry>
        </mxCell>
        <mxCell id="gxWXDuv_5PvGbGYGjA6f-39" style="edgeStyle=orthogonalEdgeStyle;rounded=0;orthogonalLoop=1;jettySize=auto;html=1;" edge="1" parent="1" source="gxWXDuv_5PvGbGYGjA6f-18">
          <mxGeometry relative="1" as="geometry">
            <mxPoint x="270" y="220" as="targetPoint" />
          </mxGeometry>
        </mxCell>
        <mxCell id="gxWXDuv_5PvGbGYGjA6f-44" value="" style="edgeStyle=orthogonalEdgeStyle;rounded=0;orthogonalLoop=1;jettySize=auto;html=1;" edge="1" parent="1" source="gxWXDuv_5PvGbGYGjA6f-18" target="gxWXDuv_5PvGbGYGjA6f-43">
          <mxGeometry relative="1" as="geometry">
            <Array as="points">
              <mxPoint x="130" y="280" />
              <mxPoint x="130" y="280" />
            </Array>
          </mxGeometry>
        </mxCell>
        <mxCell id="gxWXDuv_5PvGbGYGjA6f-18" value="&lt;div&gt;1&lt;/div&gt;&lt;div&gt;Gestion de clientes&lt;br&gt;&lt;/div&gt;" style="ellipse;whiteSpace=wrap;html=1;aspect=fixed;" vertex="1" parent="1">
          <mxGeometry x="110" y="180" width="80" height="80" as="geometry" />
        </mxCell>
        <mxCell id="gxWXDuv_5PvGbGYGjA6f-33" value="Pedidos de compra" style="text;html=1;strokeColor=none;fillColor=none;align=center;verticalAlign=middle;whiteSpace=wrap;rounded=0;" vertex="1" parent="1">
          <mxGeometry x="170" y="20" width="90" height="30" as="geometry" />
        </mxCell>
        <mxCell id="gxWXDuv_5PvGbGYGjA6f-34" value="&lt;div&gt;Factura&lt;/div&gt;" style="text;html=1;strokeColor=none;fillColor=none;align=center;verticalAlign=middle;whiteSpace=wrap;rounded=0;" vertex="1" parent="1">
          <mxGeometry x="180" y="80" width="60" height="30" as="geometry" />
        </mxCell>
        <mxCell id="gxWXDuv_5PvGbGYGjA6f-35" value="Pedido abastecimiento" style="text;html=1;strokeColor=none;fillColor=none;align=center;verticalAlign=middle;whiteSpace=wrap;rounded=0;" vertex="1" parent="1">
          <mxGeometry x="380" y="20" width="60" height="30" as="geometry" />
        </mxCell>
        <mxCell id="gxWXDuv_5PvGbGYGjA6f-36" value="Albarán de proveedor" style="text;html=1;strokeColor=none;fillColor=none;align=center;verticalAlign=middle;whiteSpace=wrap;rounded=0;" vertex="1" parent="1">
          <mxGeometry x="360" y="80" width="90" height="30" as="geometry" />
        </mxCell>
        <mxCell id="gxWXDuv_5PvGbGYGjA6f-38" value="Pedido de compra" style="text;html=1;strokeColor=none;fillColor=none;align=center;verticalAlign=middle;whiteSpace=wrap;rounded=0;" vertex="1" parent="1">
          <mxGeometry x="30" y="130" width="60" height="30" as="geometry" />
        </mxCell>
        <mxCell id="gxWXDuv_5PvGbGYGjA6f-40" value="Factura" style="text;html=1;strokeColor=none;fillColor=none;align=center;verticalAlign=middle;whiteSpace=wrap;rounded=0;" vertex="1" parent="1">
          <mxGeometry x="260" y="195" width="80" height="50" as="geometry" />
        </mxCell>
        <mxCell id="gxWXDuv_5PvGbGYGjA6f-41" value="" style="endArrow=none;html=1;rounded=0;edgeStyle=orthogonalEdgeStyle;" edge="1" parent="1">
          <mxGeometry relative="1" as="geometry">
            <mxPoint x="70" y="330" as="sourcePoint" />
            <mxPoint x="230" y="330" as="targetPoint" />
          </mxGeometry>
        </mxCell>
        <mxCell id="gxWXDuv_5PvGbGYGjA6f-42" value="" style="endArrow=none;html=1;rounded=0;edgeStyle=orthogonalEdgeStyle;" edge="1" parent="1">
          <mxGeometry relative="1" as="geometry">
            <mxPoint x="70" y="361.18" as="sourcePoint" />
            <mxPoint x="230" y="361.18" as="targetPoint" />
          </mxGeometry>
        </mxCell>
        <mxCell id="gxWXDuv_5PvGbGYGjA6f-45" value="" style="edgeStyle=orthogonalEdgeStyle;rounded=0;orthogonalLoop=1;jettySize=auto;html=1;" edge="1" parent="1" source="gxWXDuv_5PvGbGYGjA6f-43" target="gxWXDuv_5PvGbGYGjA6f-18">
          <mxGeometry relative="1" as="geometry">
            <Array as="points">
              <mxPoint x="170" y="290" />
              <mxPoint x="170" y="290" />
            </Array>
          </mxGeometry>
        </mxCell>
        <mxCell id="gxWXDuv_5PvGbGYGjA6f-55" value="" style="edgeStyle=orthogonalEdgeStyle;rounded=0;orthogonalLoop=1;jettySize=auto;html=1;" edge="1" parent="1" source="gxWXDuv_5PvGbGYGjA6f-43" target="gxWXDuv_5PvGbGYGjA6f-46">
          <mxGeometry relative="1" as="geometry">
            <Array as="points">
              <mxPoint x="130" y="400" />
              <mxPoint x="130" y="400" />
            </Array>
          </mxGeometry>
        </mxCell>
        <mxCell id="gxWXDuv_5PvGbGYGjA6f-43" value="Productos" style="text;html=1;strokeColor=none;fillColor=none;align=center;verticalAlign=middle;whiteSpace=wrap;rounded=0;" vertex="1" parent="1">
          <mxGeometry x="120" y="331.18" width="60" height="30" as="geometry" />
        </mxCell>
        <mxCell id="gxWXDuv_5PvGbGYGjA6f-47" style="edgeStyle=orthogonalEdgeStyle;rounded=0;orthogonalLoop=1;jettySize=auto;html=1;entryX=0;entryY=0.5;entryDx=0;entryDy=0;" edge="1" parent="1" target="gxWXDuv_5PvGbGYGjA6f-46">
          <mxGeometry relative="1" as="geometry">
            <mxPoint x="40" y="480" as="targetPoint" />
            <mxPoint x="60" y="480" as="sourcePoint" />
            <Array as="points" />
          </mxGeometry>
        </mxCell>
        <mxCell id="gxWXDuv_5PvGbGYGjA6f-49" style="edgeStyle=orthogonalEdgeStyle;rounded=0;orthogonalLoop=1;jettySize=auto;html=1;" edge="1" parent="1" source="gxWXDuv_5PvGbGYGjA6f-46">
          <mxGeometry relative="1" as="geometry">
            <mxPoint x="260" y="480" as="targetPoint" />
          </mxGeometry>
        </mxCell>
        <mxCell id="gxWXDuv_5PvGbGYGjA6f-56" value="" style="edgeStyle=orthogonalEdgeStyle;rounded=0;orthogonalLoop=1;jettySize=auto;html=1;" edge="1" parent="1" source="gxWXDuv_5PvGbGYGjA6f-46" target="gxWXDuv_5PvGbGYGjA6f-43">
          <mxGeometry relative="1" as="geometry">
            <Array as="points">
              <mxPoint x="170" y="400" />
              <mxPoint x="170" y="400" />
            </Array>
          </mxGeometry>
        </mxCell>
        <mxCell id="gxWXDuv_5PvGbGYGjA6f-46" value="&lt;div&gt;2&lt;/div&gt;&lt;div&gt;Gestión de proveedores&lt;br&gt;&lt;/div&gt;" style="ellipse;whiteSpace=wrap;html=1;aspect=fixed;" vertex="1" parent="1">
          <mxGeometry x="110" y="440" width="80" height="80" as="geometry" />
        </mxCell>
        <mxCell id="gxWXDuv_5PvGbGYGjA6f-48" value="Albaran" style="text;html=1;strokeColor=none;fillColor=none;align=center;verticalAlign=middle;whiteSpace=wrap;rounded=0;" vertex="1" parent="1">
          <mxGeometry y="450" width="60" height="30" as="geometry" />
        </mxCell>
        <mxCell id="gxWXDuv_5PvGbGYGjA6f-50" value="Pedido" style="text;html=1;strokeColor=none;fillColor=none;align=center;verticalAlign=middle;whiteSpace=wrap;rounded=0;" vertex="1" parent="1">
          <mxGeometry x="240" y="450" width="60" height="30" as="geometry" />
        </mxCell>
        <mxCell id="gxWXDuv_5PvGbGYGjA6f-51" value="&lt;u&gt;Nivel 0:&lt;/u&gt;" style="text;html=1;strokeColor=none;fillColor=none;align=center;verticalAlign=middle;whiteSpace=wrap;rounded=0;" vertex="1" parent="1">
          <mxGeometry width="60" height="30" as="geometry" />
        </mxCell>
        <mxCell id="gxWXDuv_5PvGbGYGjA6f-52" value="&lt;u&gt;Nivel 1:&lt;/u&gt;" style="text;html=1;strokeColor=none;fillColor=none;align=center;verticalAlign=middle;whiteSpace=wrap;rounded=0;" vertex="1" parent="1">
          <mxGeometry x="230" y="140" width="60" height="30" as="geometry" />
        </mxCell>
        <mxCell id="gxWXDuv_5PvGbGYGjA6f-57" value="&lt;u&gt;Nivel 2:&lt;/u&gt;" style="text;html=1;strokeColor=none;fillColor=none;align=center;verticalAlign=middle;whiteSpace=wrap;rounded=0;" vertex="1" parent="1">
          <mxGeometry x="710" y="140" width="60" height="30" as="geometry" />
        </mxCell>
        <mxCell id="gxWXDuv_5PvGbGYGjA6f-62" style="edgeStyle=orthogonalEdgeStyle;rounded=0;orthogonalLoop=1;jettySize=auto;html=1;" edge="1" parent="1" source="gxWXDuv_5PvGbGYGjA6f-58">
          <mxGeometry relative="1" as="geometry">
            <mxPoint x="600" y="228.81999999999994" as="targetPoint" />
          </mxGeometry>
        </mxCell>
        <mxCell id="gxWXDuv_5PvGbGYGjA6f-58" value="1.1 Registrar Pedido" style="ellipse;whiteSpace=wrap;html=1;aspect=fixed;" vertex="1" parent="1">
          <mxGeometry x="470" y="188.82" width="80" height="80" as="geometry" />
        </mxCell>
        <mxCell id="gxWXDuv_5PvGbGYGjA6f-59" value="" style="endArrow=none;html=1;rounded=0;edgeStyle=orthogonalEdgeStyle;" edge="1" parent="1">
          <mxGeometry relative="1" as="geometry">
            <mxPoint x="600" y="212.64" as="sourcePoint" />
            <mxPoint x="760" y="212.64" as="targetPoint" />
          </mxGeometry>
        </mxCell>
        <mxCell id="gxWXDuv_5PvGbGYGjA6f-60" value="" style="endArrow=none;html=1;rounded=0;edgeStyle=orthogonalEdgeStyle;" edge="1" parent="1">
          <mxGeometry relative="1" as="geometry">
            <mxPoint x="600" y="243.82000000000005" as="sourcePoint" />
            <mxPoint x="760" y="243.82000000000005" as="targetPoint" />
          </mxGeometry>
        </mxCell>
        <mxCell id="gxWXDuv_5PvGbGYGjA6f-61" value="Productos" style="text;html=1;strokeColor=none;fillColor=none;align=center;verticalAlign=middle;whiteSpace=wrap;rounded=0;" vertex="1" parent="1">
          <mxGeometry x="650" y="213.82" width="60" height="30" as="geometry" />
        </mxCell>
        <mxCell id="gxWXDuv_5PvGbGYGjA6f-65" style="edgeStyle=orthogonalEdgeStyle;rounded=0;orthogonalLoop=1;jettySize=auto;html=1;" edge="1" parent="1" source="gxWXDuv_5PvGbGYGjA6f-63">
          <mxGeometry relative="1" as="geometry">
            <mxPoint x="970" y="228.81999999999994" as="targetPoint" />
          </mxGeometry>
        </mxCell>
        <mxCell id="gxWXDuv_5PvGbGYGjA6f-63" value="&lt;div&gt;1.2&lt;/div&gt;&lt;div&gt;Servir Pedido&lt;br&gt;&lt;/div&gt;" style="ellipse;whiteSpace=wrap;html=1;aspect=fixed;" vertex="1" parent="1">
          <mxGeometry x="827" y="188.82" width="80" height="80" as="geometry" />
        </mxCell>
        <mxCell id="gxWXDuv_5PvGbGYGjA6f-64" style="edgeStyle=orthogonalEdgeStyle;rounded=0;orthogonalLoop=1;jettySize=auto;html=1;" edge="1" parent="1">
          <mxGeometry relative="1" as="geometry">
            <mxPoint x="820" y="228.23" as="targetPoint" />
            <mxPoint x="760" y="228.23" as="sourcePoint" />
            <Array as="points">
              <mxPoint x="810" y="228.23" />
            </Array>
          </mxGeometry>
        </mxCell>
        <mxCell id="gxWXDuv_5PvGbGYGjA6f-66" value="Factura" style="text;html=1;strokeColor=none;fillColor=none;align=center;verticalAlign=middle;whiteSpace=wrap;rounded=0;" vertex="1" parent="1">
          <mxGeometry x="970" y="213.82" width="60" height="30" as="geometry" />
        </mxCell>
        <mxCell id="gxWXDuv_5PvGbGYGjA6f-68" style="edgeStyle=orthogonalEdgeStyle;rounded=0;orthogonalLoop=1;jettySize=auto;html=1;" edge="1" parent="1">
          <mxGeometry relative="1" as="geometry">
            <mxPoint x="460" y="228.22999999999993" as="targetPoint" />
            <mxPoint x="397" y="228.22999999999993" as="sourcePoint" />
          </mxGeometry>
        </mxCell>
        <mxCell id="gxWXDuv_5PvGbGYGjA6f-69" value="&lt;div&gt;Pedido de compra&lt;/div&gt;" style="text;html=1;strokeColor=none;fillColor=none;align=center;verticalAlign=middle;whiteSpace=wrap;rounded=0;" vertex="1" parent="1">
          <mxGeometry x="400" y="195" width="60" height="30" as="geometry" />
        </mxCell>
      </root>
    </mxGraphModel>
  </diagram>
</mxfile>
